<?xml version="1.0" encoding="UTF-8" standalone="no"?>
<!-- Created with Inkscape (http://www.inkscape.org/) -->

<svg
   xmlns:dc="http://purl.org/dc/elements/1.1/"
   xmlns:cc="http://creativecommons.org/ns#"
   xmlns:rdf="http://www.w3.org/1999/02/22-rdf-syntax-ns#"
   xmlns:svg="http://www.w3.org/2000/svg"
   xmlns="http://www.w3.org/2000/svg"
   xmlns:sodipodi="http://sodipodi.sourceforge.net/DTD/sodipodi-0.dtd"
   xmlns:inkscape="http://www.inkscape.org/namespaces/inkscape"
   width="512"
   height="512"
   viewBox="0 0 512 512.00001"
   id="svg4197"
   version="1.1"
   inkscape:version="0.91 r13725"
   inkscape:export-filename="/home/gabmus/Applicazioni Utente/mLauncher/icon.png"
   inkscape:export-xdpi="90"
   inkscape:export-ydpi="90"
   sodipodi:docname="mLauncherIcon.svg">
  <defs
     id="defs4199">
    <filter
       height="1.216"
       y="-0.108"
       width="1.216"
       x="-0.108"
       id="filter4530"
       style="color-interpolation-filters:sRGB"
       inkscape:collect="always">
      <feGaussianBlur
         id="feGaussianBlur4532"
         stdDeviation="13.68"
         inkscape:collect="always" />
    </filter>
  </defs>
  <sodipodi:namedview
     id="base"
     pagecolor="#ffffff"
     bordercolor="#666666"
     borderopacity="1.0"
     inkscape:pageopacity="0.0"
     inkscape:pageshadow="2"
     inkscape:zoom="0.98994949"
     inkscape:cx="208.66357"
     inkscape:cy="184.26912"
     inkscape:document-units="px"
     inkscape:current-layer="layer1"
     showgrid="false"
     inkscape:snap-nodes="false"
     inkscape:object-nodes="true"
     inkscape:snap-object-midpoints="true"
     inkscape:snap-others="true"
     units="px"
     inkscape:snap-center="true"
     inkscape:snap-bbox="true"
     inkscape:snap-bbox-midpoints="true"
     inkscape:window-width="2560"
     inkscape:window-height="1382"
     inkscape:window-x="0"
     inkscape:window-y="27"
     inkscape:window-maximized="1" />
  <metadata
     id="metadata4202">
    <rdf:RDF>
      <cc:Work
         rdf:about="">
        <dc:format>image/svg+xml</dc:format>
        <dc:type
           rdf:resource="http://purl.org/dc/dcmitype/StillImage" />
        <dc:title></dc:title>
      </cc:Work>
    </rdf:RDF>
  </metadata>
  <g
     inkscape:label="Livello 1"
     inkscape:groupmode="layer"
     id="layer1"
     transform="translate(0,-540.36216)">
    <g
       id="g4852"
       transform="translate(3.7625552,1.0617187e-5)">
      <circle
         transform="matrix(1.3646849,0,0,1.3850416,-228.13164,-824.1365)"
         style="fill:#263238;fill-opacity:0.2;filter:url(#filter4530)"
         id="circle5645"
         cx="352"
         cy="1170"
         r="152" />
      <ellipse
         cy="785.28186"
         cx="252.23743"
         id="circle5717"
         style="fill:#db60a4;fill-opacity:1"
         rx="207.43208"
         ry="210.52631" />
      <path
         inkscape:connector-curvature="0"
         style="fill:#1a237e;fill-opacity:0.2"
         d="M 459.61351,783.65866 A 207.4321,210.52632 0 0 1 252.23741,993.038 207.4321,210.52632 0 0 1 44.861259,784.13483 a 207.4321,210.52632 0 0 0 -0.056,1.14696 207.4321,210.52632 0 0 0 207.432091,210.52632 207.4321,210.52632 0 0 0 207.43211,-210.52632 207.4321,210.52632 0 0 0 -0.056,-1.62313 z"
         id="path5727" />
      <path
         id="path5729"
         d="M 459.61356,786.90492 A 207.4321,210.52632 0 0 0 252.23743,577.52558 207.4321,210.52632 0 0 0 44.861299,786.42879 a 207.4321,210.52632 0 0 1 -0.056,-1.14706 207.4321,210.52632 0 0 1 207.432101,-210.52626 207.4321,210.52632 0 0 1 207.43211,210.52626 207.4321,210.52632 0 0 1 -0.056,1.62319 z"
         style="fill:#ffffff;fill-opacity:0.2"
         inkscape:connector-curvature="0" />
      <path
         inkscape:connector-curvature="0"
         id="path4818"
         d="m 358.23948,673.0307 c 0,0 -15.84507,4.00946 -23.22721,7.01607 -11.1743,3.74787 -23.20795,6.29871 -33.00567,12.20287 -5.40068,3.25445 -9.70092,7.87369 -13.75852,12.52859 -1.03491,1.18725 -2.09159,2.42697 -3.16071,3.70241 -0.26561,0.31694 -0.53801,0.65501 -0.80558,0.97713 -0.7727,0.92988 -1.54804,1.86602 -2.33605,2.8369 -0.44884,0.55308 -0.90479,1.12695 -1.35829,1.69258 -0.63795,0.79579 -1.27579,1.5916 -1.9221,2.41101 -0.51631,0.65449 -1.0384,1.32462 -1.55971,1.99331 -0.57582,0.73984 -1.15263,1.47938 -1.73443,2.23529 -0.5731,0.74428 -1.14974,1.4992 -1.72797,2.25823 -0.53504,0.70323 -1.06896,1.4109 -1.60779,2.12609 -0.6697,0.88943 -1.34205,1.78677 -2.01699,2.6933 -0.27569,0.37086 -0.55182,0.7443 -0.82871,1.11754 -2.06628,2.78741 -4.14913,5.63688 -6.24449,8.55138 -0.0813,0.11304 -0.16135,0.22838 -0.24333,0.34109 -1.64766,2.29412 -3.29679,4.6384 -4.94953,6.98669 -0.99277,1.41096 -1.98138,2.81784 -2.97285,4.24246 -1.41411,2.03122 -2.81508,4.05682 -4.22075,6.10474 -0.82729,1.20559 -1.64631,2.40394 -2.46885,3.61182 -1.56087,2.29152 -3.10434,4.56765 -4.64063,6.85346 -0.54948,0.81773 -1.08776,1.62531 -1.63328,2.44081 -1.77033,2.64572 -3.51599,5.2639 -5.23472,7.86709 -0.021,0.0316 -0.0428,0.0643 -0.0639,0.0961 l -53.6678,6.52881 -36.69406,48.55901 59.84816,-7.28004 c -3.34451,5.41773 -5.73385,9.33214 -5.73385,9.33214 0,0 12.0412,15.70425 19.90835,21.68169 7.86715,5.97743 26.22394,13.36944 26.22394,13.36944 0,0 3.13089,-3.35097 7.45411,-8.02508 l 9.02541,59.60993 36.9488,-48.36546 -8.09285,-53.45432 c 0.0253,-0.0295 0.0501,-0.0578 0.0754,-0.0872 2.04734,-2.35351 4.10191,-4.73699 6.17642,-7.1516 0.63948,-0.74411 1.27326,-1.47913 1.9138,-2.22766 1.79047,-2.09269 3.56969,-4.18968 5.35908,-6.30758 0.94329,-1.11613 1.87828,-2.22638 2.81805,-3.34651 1.5963,-1.90309 3.17234,-3.79566 4.75028,-5.7024 1.10682,-1.33699 2.19725,-2.6665 3.29056,-4.00107 1.81947,-2.22163 3.636,-4.4387 5.40466,-6.64089 0.0872,-0.10879 0.17688,-0.21678 0.2634,-0.32584 2.24628,-2.79981 4.43334,-5.57012 6.56506,-8.3078 0.28595,-0.36636 0.57173,-0.73247 0.85457,-1.0979 0.69239,-0.89328 1.3771,-1.78123 2.05422,-2.665 0.54462,-0.7108 1.08287,-1.4152 1.61743,-2.11877 0.57668,-0.76022 1.15005,-1.51762 1.71255,-2.26996 0.57224,-0.76317 1.13062,-1.5167 1.6887,-2.27003 0.50423,-0.68167 1.01021,-1.36403 1.5024,-2.03685 0.61621,-0.84228 1.21198,-1.67006 1.80768,-2.49794 0.42341,-0.58851 0.85419,-1.1815 1.26666,-1.76222 0.72425,-1.01931 1.41825,-2.01724 2.10706,-3.01088 0.23862,-0.34411 0.49134,-0.69714 0.72549,-1.03797 0.94222,-1.37186 1.85344,-2.72211 2.71991,-4.03733 3.3972,-5.1567 6.69501,-10.53754 8.38305,-16.61285 3.06228,-11.02173 2.29496,-23.29868 2.91106,-35.06866 0.91822,-7.91787 0.5346,-24.25782 0.5346,-24.25782 z m -36.96064,48.64542 a 18.127513,18.127513 0 0 1 3.46695,25.39974 18.127513,18.127513 0 0 1 -25.39973,3.46692 18.127513,18.127513 0 0 1 -3.46694,-25.39971 18.127513,18.127513 0 0 1 25.39972,-3.46695 z"
         style="opacity:1;fill:#ececec;fill-opacity:1;stroke:none;stroke-width:5.3210001;stroke-miterlimit:4;stroke-dasharray:none;stroke-opacity:1" />
    </g>
  </g>
</svg>
